<?xml version="1.0" encoding="UTF-8" standalone="no" ?>
<!DOCTYPE svg PUBLIC "-//W3C//DTD SVG 1.1//EN" "http://www.w3.org/Graphics/SVG/1.1/DTD/svg11.dtd">
<svg xmlns="http://www.w3.org/2000/svg" xmlns:xlink="http://www.w3.org/1999/xlink" version="1.1" width="350" height="350" viewBox="0 0 350 350" xml:space="preserve">
<desc>Created with Fabric.js 1.7.22</desc>
<defs>
</defs>
<g id="icon" style="stroke: none; stroke-width: 1; stroke-dasharray: none; stroke-linecap: butt; stroke-linejoin: miter; stroke-miterlimit: 10; fill: none; fill-rule: nonzero; opacity: 1;" transform="translate(-1.9444444444444287 -1.9444444444444287) scale(3.89 3.89)" >
	<path d="M 54.048 53.584 c 8.346 6.777 13.801 17.462 13.801 35.916 h -7.745 c -3.089 -5.179 -6.617 -8.579 -10.551 -10.333 L 54.048 53.584 z" style="stroke: none; stroke-width: 1; stroke-dasharray: none; stroke-linecap: butt; stroke-linejoin: miter; stroke-miterlimit: 10; fill: rgb(62,108,144); fill-rule: nonzero; opacity: 1;" transform=" matrix(1 0 0 1 0 0) " stroke-linecap="round" />
	<path d="M 15.035 53.584 C 6.69 60.361 1.234 71.046 1.234 89.5 H 8.98 c 3.089 -5.179 6.617 -8.579 10.551 -10.333 L 15.035 53.584 z" style="stroke: none; stroke-width: 1; stroke-dasharray: none; stroke-linecap: butt; stroke-linejoin: miter; stroke-miterlimit: 10; fill: rgb(62,108,144); fill-rule: nonzero; opacity: 1;" transform=" matrix(1 0 0 1 0 0) " stroke-linecap="round" />
	<path d="M 52.187 69.402 c 1.242 -6.098 1.932 -12.842 1.932 -19.939 c 0 -10.59 -1.534 -20.401 -4.146 -28.445 c -10.29 -5.013 -20.58 -5.013 -30.87 0 c -2.612 8.044 -4.146 17.855 -4.146 28.445 c 0 7.097 0.69 13.841 1.932 19.939 C 28.654 75.461 40.42 75.461 52.187 69.402 z" style="stroke: none; stroke-width: 1; stroke-dasharray: none; stroke-linecap: butt; stroke-linejoin: miter; stroke-miterlimit: 10; fill: rgb(221,218,236); fill-rule: nonzero; opacity: 1;" transform=" matrix(1 0 0 1 0 0) " stroke-linecap="round" />
	<circle cx="79.07900000000001" cy="10.189" r="9.689" style="stroke: none; stroke-width: 1; stroke-dasharray: none; stroke-linecap: butt; stroke-linejoin: miter; stroke-miterlimit: 10; fill: rgb(249,246,249); fill-rule: nonzero; opacity: 1;" transform="  matrix(1 0 0 1 0 0) "/>
	<circle cx="79.07900000000001" cy="35.849000000000004" r="9.689" style="stroke: none; stroke-width: 1; stroke-dasharray: none; stroke-linecap: butt; stroke-linejoin: miter; stroke-miterlimit: 10; fill: rgb(249,246,249); fill-rule: nonzero; opacity: 1;" transform="  matrix(1 0 0 1 0 0) "/>
	<circle cx="79.07900000000001" cy="61.499" r="9.689" style="stroke: none; stroke-width: 1; stroke-dasharray: none; stroke-linecap: butt; stroke-linejoin: miter; stroke-miterlimit: 10; fill: rgb(170,216,128); fill-rule: nonzero; opacity: 1;" transform="  matrix(1 0 0 1 0 0) "/>
	<circle cx="34.532" cy="42.992" r="8.732" style="stroke: none; stroke-width: 1; stroke-dasharray: none; stroke-linecap: butt; stroke-linejoin: miter; stroke-miterlimit: 10; fill: rgb(249,246,249); fill-rule: nonzero; opacity: 1;" transform="  matrix(1 0 0 1 0 0) "/>
	<path d="M 34.537 52.226 c -5.09 0 -9.232 -4.142 -9.232 -9.232 s 4.142 -9.232 9.232 -9.232 c 5.091 0 9.232 4.142 9.232 9.232 S 39.628 52.226 34.537 52.226 z M 34.537 34.762 c -4.539 0 -8.232 3.693 -8.232 8.232 c 0 4.54 3.693 8.232 8.232 8.232 c 4.54 0 8.232 -3.692 8.232 -8.232 C 42.77 38.455 39.077 34.762 34.537 34.762 z" style="stroke: none; stroke-width: 1; stroke-dasharray: none; stroke-linecap: butt; stroke-linejoin: miter; stroke-miterlimit: 10; fill: rgb(18,34,46); fill-rule: nonzero; opacity: 1;" transform=" matrix(1 0 0 1 0 0) " stroke-linecap="round" />
	<path d="M 79.077 20.378 c -5.618 0 -10.189 -4.571 -10.189 -10.189 S 73.459 0 79.077 0 s 10.188 4.571 10.188 10.189 S 84.695 20.378 79.077 20.378 z M 79.077 1 c -5.067 0 -9.189 4.122 -9.189 9.189 s 4.122 9.189 9.189 9.189 c 5.066 0 9.188 -4.122 9.188 -9.189 S 84.144 1 79.077 1 z" style="stroke: none; stroke-width: 1; stroke-dasharray: none; stroke-linecap: butt; stroke-linejoin: miter; stroke-miterlimit: 10; fill: rgb(18,34,46); fill-rule: nonzero; opacity: 1;" transform=" matrix(1 0 0 1 0 0) " stroke-linecap="round" />
	<path d="M 79.077 46.034 c -5.618 0 -10.189 -4.571 -10.189 -10.189 s 4.571 -10.189 10.189 -10.189 s 10.188 4.571 10.188 10.189 S 84.695 46.034 79.077 46.034 z M 79.077 26.656 c -5.067 0 -9.189 4.122 -9.189 9.189 s 4.122 9.189 9.189 9.189 c 5.066 0 9.188 -4.122 9.188 -9.189 S 84.144 26.656 79.077 26.656 z" style="stroke: none; stroke-width: 1; stroke-dasharray: none; stroke-linecap: butt; stroke-linejoin: miter; stroke-miterlimit: 10; fill: rgb(18,34,46); fill-rule: nonzero; opacity: 1;" transform=" matrix(1 0 0 1 0 0) " stroke-linecap="round" />
	<path d="M 79.077 71.69 c -5.618 0 -10.189 -4.57 -10.189 -10.188 s 4.571 -10.189 10.189 -10.189 s 10.188 4.571 10.188 10.189 S 84.695 71.69 79.077 71.69 z M 79.077 52.313 c -5.067 0 -9.189 4.122 -9.189 9.189 c 0 5.066 4.122 9.188 9.189 9.188 c 5.066 0 9.188 -4.122 9.188 -9.188 C 88.266 56.435 84.144 52.313 79.077 52.313 z" style="stroke: none; stroke-width: 1; stroke-dasharray: none; stroke-linecap: butt; stroke-linejoin: miter; stroke-miterlimit: 10; fill: rgb(18,34,46); fill-rule: nonzero; opacity: 1;" transform=" matrix(1 0 0 1 0 0) " stroke-linecap="round" />
	<path d="M 81.94 5.229 h -5.728 c -0.276 0 -0.5 0.224 -0.5 0.5 s 0.224 0.5 0.5 0.5 h 5.228 v 3.459 h -5.228 c -0.276 0 -0.5 0.224 -0.5 0.5 s 0.224 0.5 0.5 0.5 h 5.228 v 3.46 h -5.228 c -0.276 0 -0.5 0.224 -0.5 0.5 s 0.224 0.5 0.5 0.5 h 5.728 c 0.276 0 0.5 -0.224 0.5 -0.5 V 5.729 C 82.44 5.453 82.217 5.229 81.94 5.229 z" style="stroke: none; stroke-width: 1; stroke-dasharray: none; stroke-linecap: butt; stroke-linejoin: miter; stroke-miterlimit: 10; fill: rgb(18,34,46); fill-rule: nonzero; opacity: 1;" transform=" matrix(1 0 0 1 0 0) " stroke-linecap="round" />
	<path d="M 81.94 40.805 h -5.728 c -0.276 0 -0.5 -0.224 -0.5 -0.5 v -4.46 c 0 -0.276 0.224 -0.5 0.5 -0.5 h 5.228 v -3.459 h -5.228 c -0.276 0 -0.5 -0.224 -0.5 -0.5 s 0.224 -0.5 0.5 -0.5 h 5.728 c 0.276 0 0.5 0.224 0.5 0.5 v 4.459 c 0 0.276 -0.224 0.5 -0.5 0.5 h -5.228 v 3.46 h 5.228 c 0.276 0 0.5 0.224 0.5 0.5 S 82.217 40.805 81.94 40.805 z" style="stroke: none; stroke-width: 1; stroke-dasharray: none; stroke-linecap: butt; stroke-linejoin: miter; stroke-miterlimit: 10; fill: rgb(18,34,46); fill-rule: nonzero; opacity: 1;" transform=" matrix(1 0 0 1 0 0) " stroke-linecap="round" />
	<path d="M 81.544 65.461 H 79.73 v -8.419 c 0 -0.194 -0.113 -0.372 -0.29 -0.454 c -0.178 -0.081 -0.386 -0.054 -0.533 0.072 l -2.621 2.222 c -0.211 0.179 -0.236 0.494 -0.059 0.705 c 0.181 0.212 0.496 0.236 0.705 0.059 l 1.798 -1.524 v 7.34 h -1.747 c -0.276 0 -0.5 0.224 -0.5 0.5 s 0.224 0.5 0.5 0.5 h 4.561 c 0.276 0 0.5 -0.224 0.5 -0.5 S 81.82 65.461 81.544 65.461 z" style="stroke: none; stroke-width: 1; stroke-dasharray: none; stroke-linecap: butt; stroke-linejoin: miter; stroke-miterlimit: 10; fill: rgb(18,34,46); fill-rule: nonzero; opacity: 1;" transform=" matrix(1 0 0 1 0 0) " stroke-linecap="round" />
	<path d="M 49.972 21.018 C 46.43 10.111 40.907 2.452 34.537 0.5 c -6.369 1.952 -11.893 9.611 -15.435 20.518 C 29.392 17.949 39.682 17.949 49.972 21.018 z" style="stroke: none; stroke-width: 1; stroke-dasharray: none; stroke-linecap: butt; stroke-linejoin: miter; stroke-miterlimit: 10; fill: rgb(62,108,144); fill-rule: nonzero; opacity: 1;" transform=" matrix(1 0 0 1 0 0) " stroke-linecap="round" />
	<path d="M 52.187 69.402 c -0.71 3.484 -1.599 6.758 -2.643 9.765 c -10.005 3.167 -20.009 3.166 -30.013 0 c -1.044 -3.007 -1.933 -6.281 -2.643 -9.765 C 28.654 72.472 40.42 72.472 52.187 69.402 z" style="stroke: none; stroke-width: 1; stroke-dasharray: none; stroke-linecap: butt; stroke-linejoin: miter; stroke-miterlimit: 10; fill: rgb(221,99,110); fill-rule: nonzero; opacity: 1;" transform=" matrix(1 0 0 1 0 0) " stroke-linecap="round" />
	<path d="M 54.543 53.352 c 0.046 -1.289 0.076 -2.583 0.076 -3.889 c 0 -10.308 -1.442 -20.197 -4.171 -28.6 c -3.67 -11.3 -9.416 -18.896 -15.765 -20.841 c -0.096 -0.029 -0.197 -0.029 -0.293 0 c -6.349 1.945 -12.095 9.542 -15.764 20.841 c -2.729 8.402 -4.171 18.292 -4.171 28.6 c 0 1.308 0.031 2.605 0.077 3.896 C 5.252 61.006 0.734 72.828 0.734 89.5 c 0 0.276 0.224 0.5 0.5 0.5 h 7.745 c 0.176 0 0.339 -0.093 0.429 -0.244 c 2.941 -4.93 6.363 -8.306 10.17 -10.053 c 4.964 1.55 9.96 2.329 14.958 2.329 c 4.998 0 9.999 -0.779 14.964 -2.33 c 3.807 1.746 7.23 5.123 10.173 10.055 C 59.765 89.907 59.928 90 60.104 90 h 7.745 c 0.276 0 0.5 -0.224 0.5 -0.5 C 68.349 72.823 63.828 60.999 54.543 53.352 z M 34.537 1.024 c 5.81 1.869 11.119 8.85 14.661 19.249 c -4.867 -1.364 -9.764 -2.046 -14.661 -2.046 c -4.897 0 -9.794 0.683 -14.661 2.046 C 23.419 9.874 28.728 2.893 34.537 1.024 z M 19.502 21.425 c 9.977 -2.924 20.09 -2.925 30.07 0 c 2.644 8.251 4.046 17.936 4.046 28.038 c 0 6.789 -0.629 13.356 -1.864 19.53 c -11.426 2.929 -23.009 2.928 -34.436 0 c -1.234 -6.175 -1.863 -12.742 -1.863 -19.53 C 15.456 39.361 16.857 29.676 19.502 21.425 z M 8.697 89 H 1.736 c 0.083 -15.945 4.185 -26.899 12.842 -34.36 c 0.244 5.133 0.853 10.114 1.82 14.861 c 0.675 3.318 1.527 6.478 2.524 9.413 C 15.089 80.747 11.649 84.127 8.697 89 z M 19.921 78.766 c -0.929 -2.712 -1.729 -5.627 -2.38 -8.682 c 11.282 2.813 22.711 2.813 33.992 0 c -0.651 3.055 -1.45 5.97 -2.38 8.682 C 39.453 81.784 29.62 81.784 19.921 78.766 z M 60.387 89 c -2.956 -4.877 -6.397 -8.257 -10.233 -10.089 c 0.997 -2.935 1.848 -6.094 2.523 -9.41 c 0.967 -4.748 1.577 -9.731 1.821 -14.867 C 63.16 62.094 67.264 73.05 67.348 89 H 60.387 z" style="stroke: none; stroke-width: 1; stroke-dasharray: none; stroke-linecap: butt; stroke-linejoin: miter; stroke-miterlimit: 10; fill: rgb(18,34,46); fill-rule: nonzero; opacity: 1;" transform=" matrix(1 0 0 1 0 0) " stroke-linecap="round" />
	<path d="M 22.151 24.698 c -0.226 0 -0.431 -0.154 -0.486 -0.384 c -0.064 -0.269 0.102 -0.538 0.37 -0.603 c 3.412 -0.816 6.873 -1.304 10.287 -1.449 c 0.267 -0.011 0.509 0.202 0.521 0.479 c 0.012 0.276 -0.203 0.509 -0.479 0.521 c -3.349 0.142 -6.746 0.621 -10.096 1.422 C 22.229 24.694 22.189 24.698 22.151 24.698 z" style="stroke: none; stroke-width: 1; stroke-dasharray: none; stroke-linecap: butt; stroke-linejoin: miter; stroke-miterlimit: 10; fill: rgb(18,34,46); fill-rule: nonzero; opacity: 1;" transform=" matrix(1 0 0 1 0 0) " stroke-linecap="round" />
	<path d="M 19.072 44.943 c -0.008 0 -0.016 0 -0.023 0 c -0.276 -0.013 -0.489 -0.247 -0.477 -0.522 c 0.069 -1.479 0.169 -2.963 0.298 -4.413 c 0.024 -0.274 0.268 -0.482 0.542 -0.454 c 0.275 0.024 0.478 0.268 0.454 0.542 c -0.128 1.435 -0.227 2.905 -0.295 4.37 C 19.559 44.734 19.337 44.943 19.072 44.943 z" style="stroke: none; stroke-width: 1; stroke-dasharray: none; stroke-linecap: butt; stroke-linejoin: miter; stroke-miterlimit: 10; fill: rgb(18,34,46); fill-rule: nonzero; opacity: 1;" transform=" matrix(1 0 0 1 0 0) " stroke-linecap="round" />
	<path d="M 19.781 36.732 c -0.021 0 -0.042 -0.001 -0.064 -0.004 c -0.274 -0.035 -0.467 -0.286 -0.433 -0.56 c 0.542 -4.238 1.344 -8.31 2.385 -12.103 c 0.073 -0.267 0.348 -0.423 0.614 -0.35 c 0.266 0.073 0.423 0.348 0.35 0.614 c -1.028 3.748 -1.821 7.773 -2.356 11.965 C 20.245 36.548 20.029 36.732 19.781 36.732 z" style="stroke: none; stroke-width: 1; stroke-dasharray: none; stroke-linecap: butt; stroke-linejoin: miter; stroke-miterlimit: 10; fill: rgb(18,34,46); fill-rule: nonzero; opacity: 1;" transform=" matrix(1 0 0 1 0 0) " stroke-linecap="round" />
	<path d="M 36.192 67.184 c -0.271 0 -0.493 -0.216 -0.5 -0.488 c -0.006 -0.275 0.212 -0.505 0.488 -0.512 c 3.809 -0.093 7.678 -0.518 11.499 -1.265 c 0.268 -0.056 0.533 0.122 0.586 0.395 c 0.054 0.271 -0.123 0.533 -0.395 0.586 c -3.876 0.759 -7.801 1.19 -11.666 1.284 C 36.2 67.184 36.196 67.184 36.192 67.184 z" style="stroke: none; stroke-width: 1; stroke-dasharray: none; stroke-linecap: butt; stroke-linejoin: miter; stroke-miterlimit: 10; fill: rgb(18,34,46); fill-rule: nonzero; opacity: 1;" transform=" matrix(1 0 0 1 0 0) " stroke-linecap="round" />
	<path d="M 47.911 65.882 c -0.026 0 -0.052 -0.002 -0.078 -0.006 c -0.273 -0.043 -0.46 -0.299 -0.417 -0.571 c 0.499 -3.183 0.848 -6.49 1.035 -9.832 c 0.016 -0.274 0.234 -0.49 0.527 -0.471 c 0.275 0.016 0.486 0.251 0.471 0.527 c -0.189 3.374 -0.541 6.715 -1.045 9.93 C 48.365 65.706 48.152 65.882 47.911 65.882 z" style="stroke: none; stroke-width: 1; stroke-dasharray: none; stroke-linecap: butt; stroke-linejoin: miter; stroke-miterlimit: 10; fill: rgb(18,34,46); fill-rule: nonzero; opacity: 1;" transform=" matrix(1 0 0 1 0 0) " stroke-linecap="round" />
</g>
</svg>